<?xml version="1.0" encoding="UTF-8" standalone="no"?>
<svg
   xmlns:ooo="http://xml.openoffice.org/svg/export"
   xmlns:dc="http://purl.org/dc/elements/1.1/"
   xmlns:cc="http://creativecommons.org/ns#"
   xmlns:rdf="http://www.w3.org/1999/02/22-rdf-syntax-ns#"
   xmlns:svg="http://www.w3.org/2000/svg"
   xmlns="http://www.w3.org/2000/svg"
   xmlns:sodipodi="http://sodipodi.sourceforge.net/DTD/sodipodi-0.dtd"
   xmlns:inkscape="http://www.inkscape.org/namespaces/inkscape"
   version="1.2"
   width="53.18mm"
   height="33.040001mm"
   viewBox="0 0 5318 3304.0001"
   preserveAspectRatio="xMidYMid"
   fill-rule="evenodd"
   stroke-width="28.222"
   stroke-linejoin="round"
   xml:space="preserve"
   id="svg186"
   sodipodi:docname="arvutuslikud.svg"
   inkscape:version="1.0.2 (1.0.2+r75+1)"><metadata
   id="metadata190"><rdf:RDF><cc:Work
       rdf:about=""><dc:format>image/svg+xml</dc:format><dc:type
         rdf:resource="http://purl.org/dc/dcmitype/StillImage" /></cc:Work></rdf:RDF></metadata><sodipodi:namedview
   pagecolor="#ffffff"
   bordercolor="#666666"
   borderopacity="1"
   objecttolerance="10"
   gridtolerance="10"
   guidetolerance="10"
   inkscape:pageopacity="0"
   inkscape:pageshadow="2"
   inkscape:window-width="1180"
   inkscape:window-height="1035"
   id="namedview188"
   showgrid="false"
   inkscape:zoom="0.78216891"
   inkscape:cx="-41.067567"
   inkscape:cy="302.13922"
   inkscape:window-x="0"
   inkscape:window-y="0"
   inkscape:window-maximized="0"
   inkscape:current-layer="svg186"
   inkscape:document-rotation="0" />
 <defs
   class="ClipPathGroup"
   id="defs8">
  <clipPath
   id="presentation_clip_path"
   clipPathUnits="userSpaceOnUse">
   <rect
   x="0"
   y="0"
   width="21000"
   height="29700"
   id="rect2" />
  </clipPath>
  <clipPath
   id="presentation_clip_path_shrink"
   clipPathUnits="userSpaceOnUse">
   <rect
   x="21"
   y="29"
   width="20958"
   height="29641"
   id="rect5" />
  </clipPath>
 </defs>
 <defs
   class="TextShapeIndex"
   id="defs12">
  <g
   ooo:slide="id1"
   ooo:id-list="id3 id4 id5 id6 id7 id8 id9 id10 id11 id12 id13 id14 id15 id16 id17"
   id="g10" />
 </defs>
 <defs
   class="EmbeddedBulletChars"
   id="defs44">
  <g
   id="bullet-char-template-57356"
   transform="matrix(4.8828125e-4,0,0,-4.8828125e-4,0,0)">
   <path
   d="M 580,1141 1163,571 580,0 -4,571 Z"
   id="path14" />
  </g>
  <g
   id="bullet-char-template-57354"
   transform="matrix(4.8828125e-4,0,0,-4.8828125e-4,0,0)">
   <path
   d="M 8,1128 H 1137 V 0 H 8 Z"
   id="path17" />
  </g>
  <g
   id="bullet-char-template-10146"
   transform="matrix(4.8828125e-4,0,0,-4.8828125e-4,0,0)">
   <path
   d="M 174,0 602,739 174,1481 1456,739 Z M 1358,739 309,1346 659,739 Z"
   id="path20" />
  </g>
  <g
   id="bullet-char-template-10132"
   transform="matrix(4.8828125e-4,0,0,-4.8828125e-4,0,0)">
   <path
   d="M 2015,739 1276,0 H 717 l 543,543 H 174 v 393 h 1086 l -543,545 h 557 z"
   id="path23" />
  </g>
  <g
   id="bullet-char-template-10007"
   transform="matrix(4.8828125e-4,0,0,-4.8828125e-4,0,0)">
   <path
   d="m 0,-2 c -7,16 -16,29 -25,39 l 381,530 c -94,256 -141,385 -141,387 0,25 13,38 40,38 9,0 21,-2 34,-5 21,4 42,12 65,25 l 27,-13 111,-251 280,301 64,-25 24,25 c 21,-10 41,-24 62,-43 C 886,937 835,863 770,784 769,783 710,716 594,584 L 774,223 c 0,-27 -21,-55 -63,-84 l 16,-20 C 717,90 699,76 672,76 641,76 570,178 457,381 L 164,-76 c -22,-34 -53,-51 -92,-51 -42,0 -63,17 -64,51 -7,9 -10,24 -10,44 0,9 1,19 2,30 z"
   id="path26" />
  </g>
  <g
   id="bullet-char-template-10004"
   transform="matrix(4.8828125e-4,0,0,-4.8828125e-4,0,0)">
   <path
   d="M 285,-33 C 182,-33 111,30 74,156 52,228 41,333 41,471 c 0,78 14,145 41,201 34,71 87,106 158,106 53,0 88,-31 106,-94 l 23,-176 c 8,-64 28,-97 59,-98 l 735,706 c 11,11 33,17 66,17 42,0 63,-15 63,-46 V 965 c 0,-36 -10,-64 -30,-84 L 442,47 C 390,-6 338,-33 285,-33 Z"
   id="path29" />
  </g>
  <g
   id="bullet-char-template-9679"
   transform="matrix(4.8828125e-4,0,0,-4.8828125e-4,0,0)">
   <path
   d="M 813,0 C 632,0 489,54 383,161 276,268 223,411 223,592 c 0,181 53,324 160,431 106,107 249,161 430,161 179,0 323,-54 432,-161 108,-107 162,-251 162,-431 0,-180 -54,-324 -162,-431 C 1136,54 992,0 813,0 Z"
   id="path32" />
  </g>
  <g
   id="bullet-char-template-8226"
   transform="matrix(4.8828125e-4,0,0,-4.8828125e-4,0,0)">
   <path
   d="m 346,457 c -73,0 -137,26 -191,78 -54,51 -81,114 -81,188 0,73 27,136 81,188 54,52 118,78 191,78 73,0 134,-26 185,-79 51,-51 77,-114 77,-187 0,-75 -25,-137 -76,-188 -50,-52 -112,-78 -186,-78 z"
   id="path35" />
  </g>
  <g
   id="bullet-char-template-8211"
   transform="matrix(4.8828125e-4,0,0,-4.8828125e-4,0,0)">
   <path
   d="M -4,459 H 1135 V 606 H -4 Z"
   id="path38" />
  </g>
  <g
   id="bullet-char-template-61548"
   transform="matrix(4.8828125e-4,0,0,-4.8828125e-4,0,0)">
   <path
   d="m 173,740 c 0,163 58,303 173,419 116,115 255,173 419,173 163,0 302,-58 418,-173 116,-116 174,-256 174,-419 0,-163 -58,-303 -174,-418 C 1067,206 928,148 765,148 601,148 462,206 346,322 231,437 173,577 173,740 Z"
   id="path41" />
  </g>
 </defs>
 <defs
   class="TextEmbeddedBitmaps"
   id="defs46" />
 <g
   id="g51"
   transform="translate(-2117,-6205)">
  <g
   id="id2"
   class="Master_Slide">
   <g
   id="bg-id2"
   class="Background" />
   <g
   id="bo-id2"
   class="BackgroundObjects" />
  </g>
 </g>
 <g
   class="SlideGroup"
   id="g184"
   transform="translate(-2117,-6205)">
  <g
   id="g182">
   <g
   id="container-id1">
    <g
   id="id1"
   class="Slide"
   clip-path="url(#presentation_clip_path)">
     <g
   class="Page"
   id="g178">
      <g
   class="com.sun.star.drawing.CustomShape"
   id="g58">
       <g
   id="id3">
        <rect
   class="BoundingBox"
   stroke="none"
   fill="none"
   x="3209"
   y="6283"
   width="1577"
   height="1577"
   id="rect53" />
        <path
   fill="none"
   stroke="#ff0000"
   stroke-width="51"
   stroke-linejoin="round"
   d="M 3997,7833 H 3235 V 6309 h 1524 v 1524 z"
   id="path55" />
       </g>
      </g>
      <g
   class="com.sun.star.drawing.CustomShape"
   id="g65">
       <g
   id="id4">
        <rect
   class="BoundingBox"
   stroke="none"
   fill="none"
   x="3209"
   y="7870"
   width="1577"
   height="1577"
   id="rect60" />
        <path
   fill="none"
   stroke="#ffa500"
   stroke-width="51"
   stroke-linejoin="round"
   d="M 3997,9420 H 3235 V 7896 h 1524 v 1524 z"
   id="path62" />
       </g>
      </g>
      <g
   class="com.sun.star.drawing.CustomShape"
   id="g72">
       <g
   id="id5">
        <rect
   class="BoundingBox"
   stroke="none"
   fill="none"
   x="4784"
   y="6283"
   width="1577"
   height="1577"
   id="rect67" />
        <path
   fill="none"
   stroke="#32cd32"
   stroke-width="51"
   stroke-linejoin="round"
   d="M 5572,7833 H 4810 V 6309 h 1524 v 1524 z"
   id="path69" />
       </g>
      </g>
      <g
   class="com.sun.star.drawing.CustomShape"
   id="g79">
       <g
   id="id6">
        <rect
   class="BoundingBox"
   stroke="none"
   fill="none"
   x="4784"
   y="7857"
   width="1577"
   height="1577"
   id="rect74" />
        <path
   fill="none"
   stroke="#0000ff"
   stroke-width="51"
   stroke-linejoin="round"
   d="M 5572,9407 H 4810 V 7883 h 1524 v 1524 z"
   id="path76" />
       </g>
      </g>
      <g
   class="com.sun.star.drawing.LineShape"
   id="g88">
       <g
   id="id7">
        <rect
   class="BoundingBox"
   stroke="none"
   fill="none"
   x="2117"
   y="7782"
   width="1031"
   height="153"
   id="rect81" />
        <path
   fill="none"
   stroke="#000000"
   stroke-width="51"
   stroke-linejoin="round"
   d="m 2143,7858 h 786"
   id="path83" />
        <path
   fill="#000000"
   stroke="none"
   d="m 3147,7858 -228,-76 v 152 z"
   id="path85" />
       </g>
      </g>
      <g
   class="com.sun.star.drawing.CustomShape"
   id="g95">
       <g
   id="id8">
        <rect
   class="BoundingBox"
   stroke="none"
   fill="none"
   x="3132"
   y="6205"
   width="3304"
   height="3304"
   id="rect90" />
        <path
   fill="none"
   stroke="#708090"
   stroke-width="51"
   stroke-linejoin="round"
   d="M 4784,9482 H 3158 V 6231 h 3251 v 3251 z"
   id="path92" />
       </g>
      </g>
      <g
   class="com.sun.star.drawing.LineShape"
   id="g104">
       <g
   id="id9">
        <rect
   class="BoundingBox"
   stroke="none"
   fill="none"
   x="3945"
   y="7350"
   width="153"
   height="535"
   id="rect97" />
        <path
   fill="none"
   stroke="#ffa500"
   stroke-width="51"
   stroke-linejoin="round"
   d="M 4021,7858 V 7568"
   id="path99" />
        <path
   fill="#ffa500"
   stroke="none"
   d="m 4021,7350 -76,228 h 152 z"
   id="path101" />
       </g>
      </g>
      <g
   class="com.sun.star.drawing.LineShape"
   id="g113">
       <g
   id="id10">
        <rect
   class="BoundingBox"
   stroke="none"
   fill="none"
   x="4784"
   y="8571"
   width="535"
   height="153"
   id="rect106" />
        <path
   fill="none"
   stroke="#ffa500"
   stroke-width="51"
   stroke-linejoin="round"
   d="m 4810,8647 h 290"
   id="path108" />
        <path
   fill="#ffa500"
   stroke="none"
   d="m 5318,8647 -228,-76 v 152 z"
   id="path110" />
       </g>
      </g>
      <g
   class="com.sun.star.drawing.LineShape"
   id="g122">
       <g
   id="id11">
        <rect
   class="BoundingBox"
   stroke="none"
   fill="none"
   x="4277"
   y="8569"
   width="535"
   height="153"
   id="rect115" />
        <path
   fill="none"
   stroke="#0000ff"
   stroke-width="51"
   stroke-linejoin="round"
   d="M 4785,8645 H 4495"
   id="path117" />
        <path
   fill="#0000ff"
   stroke="none"
   d="m 4277,8645 228,76 v -152 z"
   id="path119" />
       </g>
      </g>
      <g
   class="com.sun.star.drawing.LineShape"
   id="g131">
       <g
   id="id12">
        <rect
   class="BoundingBox"
   stroke="none"
   fill="none"
   x="4784"
   y="7022"
   width="535"
   height="153"
   id="rect124" />
        <path
   fill="none"
   stroke="#ff0000"
   stroke-width="51"
   stroke-linejoin="round"
   d="m 4810,7098 h 290"
   id="path126" />
        <path
   fill="#ff0000"
   stroke="none"
   d="m 5318,7098 -228,-76 v 152 z"
   id="path128" />
       </g>
      </g>
      <g
   class="com.sun.star.drawing.LineShape"
   id="g140">
       <g
   id="id13">
        <rect
   class="BoundingBox"
   stroke="none"
   fill="none"
   x="4277"
   y="7020"
   width="535"
   height="153"
   id="rect133" />
        <path
   fill="none"
   stroke="#32cd32"
   stroke-width="51"
   stroke-linejoin="round"
   d="M 4785,7096 H 4495"
   id="path135" />
        <path
   fill="#32cd32"
   stroke="none"
   d="m 4277,7096 228,76 v -152 z"
   id="path137" />
       </g>
      </g>
      <g
   class="com.sun.star.drawing.LineShape"
   id="g149">
       <g
   id="id14">
        <rect
   class="BoundingBox"
   stroke="none"
   fill="none"
   x="3945"
   y="7845"
   width="153"
   height="535"
   id="rect142" />
        <path
   fill="none"
   stroke="#ff0000"
   stroke-width="51"
   stroke-linejoin="round"
   d="m 4021,7871 v 290"
   id="path144" />
        <path
   fill="#ff0000"
   stroke="none"
   d="m 4021,8379 76,-228 h -152 z"
   id="path146" />
       </g>
      </g>
      <g
   class="com.sun.star.drawing.LineShape"
   id="g158">
       <g
   id="id15">
        <rect
   class="BoundingBox"
   stroke="none"
   fill="none"
   x="5496"
   y="7350"
   width="153"
   height="535"
   id="rect151" />
        <path
   fill="none"
   stroke="#0000ff"
   stroke-width="51"
   stroke-linejoin="round"
   d="M 5572,7858 V 7568"
   id="path153" />
        <path
   fill="#0000ff"
   stroke="none"
   d="m 5572,7350 -76,228 h 152 z"
   id="path155" />
       </g>
      </g>
      <g
   class="com.sun.star.drawing.LineShape"
   id="g167">
       <g
   id="id16">
        <rect
   class="BoundingBox"
   stroke="none"
   fill="none"
   x="5496"
   y="7845"
   width="153"
   height="535"
   id="rect160" />
        <path
   fill="none"
   stroke="#32cd32"
   stroke-width="51"
   stroke-linejoin="round"
   d="m 5572,7871 v 290"
   id="path162" />
        <path
   fill="#32cd32"
   stroke="none"
   d="m 5572,8379 76,-228 h -152 z"
   id="path164" />
       </g>
      </g>
      <g
   class="com.sun.star.drawing.LineShape"
   id="g176">
       <g
   id="id17">
        <rect
   class="BoundingBox"
   stroke="none"
   fill="none"
   x="6404"
   y="7782"
   width="1031"
   height="153"
   id="rect169" />
        <path
   fill="none"
   stroke="#000000"
   stroke-width="51"
   stroke-linejoin="round"
   d="m 6430,7858 h 786"
   id="path171" />
        <path
   fill="#000000"
   stroke="none"
   d="m 7434,7858 -228,-76 v 152 z"
   id="path173" />
       </g>
      </g>
     </g>
    </g>
   </g>
  </g>
 </g>
</svg>
