<?xml version="1.0" encoding="UTF-8" standalone="no"?>
<svg
   xmlns:dc="http://purl.org/dc/elements/1.1/"
   xmlns:cc="http://creativecommons.org/ns#"
   xmlns:rdf="http://www.w3.org/1999/02/22-rdf-syntax-ns#"
   xmlns:svg="http://www.w3.org/2000/svg"
   xmlns="http://www.w3.org/2000/svg"
   xmlns:sodipodi="http://sodipodi.sourceforge.net/DTD/sodipodi-0.dtd"
   xmlns:inkscape="http://www.inkscape.org/namespaces/inkscape"
   width="192.74159mm"
   height="144.89272mm"
   viewBox="0 0 192.74159 144.89272"
   version="1.1"
   id="svg8"
   sodipodi:docname="graafiline-1.svg"
   inkscape:version="1.0.2 (1.0.2+r75+1)">
  <defs
     id="defs2" />
  <sodipodi:namedview
     id="base"
     pagecolor="#ffffff"
     bordercolor="#666666"
     borderopacity="1.0"
     inkscape:pageopacity="0.0"
     inkscape:pageshadow="2"
     inkscape:zoom="1"
     inkscape:cx="288.85598"
     inkscape:cy="-153.53252"
     inkscape:document-units="mm"
     inkscape:current-layer="layer1"
     inkscape:document-rotation="0"
     showgrid="false"
     inkscape:window-width="1473"
     inkscape:window-height="1354"
     inkscape:window-x="0"
     inkscape:window-y="116"
     inkscape:window-maximized="0" />
  <metadata
     id="metadata5">
    <rdf:RDF>
      <cc:Work
         rdf:about="">
        <dc:format>image/svg+xml</dc:format>
        <dc:type
           rdf:resource="http://purl.org/dc/dcmitype/StillImage" />
      </cc:Work>
    </rdf:RDF>
  </metadata>
  <g
     inkscape:label="Layer 1"
     inkscape:groupmode="layer"
     id="layer1"
     transform="translate(-4.2312403,-27.560418)">
    <path
       style="fill:none;stroke:#000000;stroke-width:0.865;stroke-linecap:butt;stroke-linejoin:miter;stroke-miterlimit:4;stroke-dasharray:none;stroke-opacity:1"
       d="M 43.498656,43.809287 V 157.2477 H 196.97283"
       id="path835" />
    <text
       xml:space="preserve"
       style="font-size:11.2889px;line-height:1.25;font-family:sans-serif;text-decoration:none;text-decoration-line:none;text-decoration-color:#000000;fill:#000000;stroke-width:0.264583;stop-color:#000000"
       x="114.53584"
       y="170.10495"
       id="text839"><tspan
         sodipodi:role="line"
         id="tspan837"
         x="114.53584"
         y="170.10495"
         style="stroke-width:0.264583">Aeg</tspan></text>
    <text
       xml:space="preserve"
       x="3.1003809"
       y="100.55138"
       id="text843"><tspan
         sodipodi:role="line"
         id="tspan841"
         x="3.1003809"
         y="100.55138"
         style="baseline-shift:baseline;stroke-width:0.264583">lnC<tspan
   style="font-size:65%;baseline-shift:sub"
   id="tspan1188">A</tspan></tspan></text>
    <path
       style="fill:#ff6600;fill-opacity:0.227014;fill-rule:evenodd;stroke:#ff6600;stroke-width:0.865;stroke-miterlimit:4;stroke-dasharray:none"
       d="m 74.14477,69.420521 c -1.023499,-1.023499 0.381084,-2.638843 1.570275,-1.805901 0.484103,0.33908 0.651069,0.858647 0.455872,1.418588 -0.2922,0.83821 -1.369346,1.044114 -2.026147,0.387313 z m 1.285965,-0.453181 c 0.315468,-0.380117 0.12773,-0.763215 -0.374021,-0.763215 -0.360852,0 -0.461745,0.07246 -0.502525,0.360879 -0.07865,0.556268 0.520538,0.831299 0.876546,0.402336 z"
       id="path855" />
    <path
       style="fill:#ff6600;fill-opacity:0.227014;fill-rule:evenodd;stroke:#ff6600;stroke-width:0.865;stroke-miterlimit:4;stroke-dasharray:none"
       d="m 94.34245,86.731573 c -1.023498,-1.023499 0.381083,-2.638843 1.570283,-1.805901 0.4841,0.33908 0.65107,0.858647 0.45587,1.418588 -0.2922,0.83821 -1.36935,1.044114 -2.026153,0.387313 z m 1.285973,-0.453181 c 0.31547,-0.380117 0.12773,-0.763215 -0.37403,-0.763215 -0.36085,0 -0.46174,0.07246 -0.50252,0.360879 -0.0786,0.556268 0.52054,0.831299 0.87655,0.402336 z"
       id="path855-3" />
    <path
       style="fill:#ff6600;fill-opacity:0.227014;fill-rule:evenodd;stroke:#ff6600;stroke-width:0.865;stroke-miterlimit:4;stroke-dasharray:none"
       d="m 116.14341,102.90882 c -1.0235,-1.02351 0.38108,-2.63886 1.57028,-1.80591 0.4841,0.33908 0.65107,0.85865 0.45587,1.41859 -0.2922,0.83822 -1.36935,1.04412 -2.02615,0.38732 z m 1.28597,-0.45319 c 0.31547,-0.38012 0.12773,-0.76322 -0.37403,-0.76322 -0.36085,0 -0.46174,0.0725 -0.50252,0.36088 -0.0786,0.55627 0.52054,0.83131 0.87655,0.40234 z"
       id="path855-3-6" />
    <path
       style="fill:#ff6600;fill-opacity:0.227014;fill-rule:evenodd;stroke:#ff6600;stroke-width:0.865;stroke-miterlimit:4;stroke-dasharray:none"
       d="m 129.90179,112.11176 c -1.0235,-1.0235 0.38109,-2.63886 1.5703,-1.80591 0.4841,0.33909 0.65107,0.85866 0.45587,1.4186 -0.2922,0.83821 -1.36936,1.04412 -2.02617,0.38731 z m 1.28598,-0.45318 c 0.31548,-0.38012 0.12774,-0.76322 -0.37403,-0.76322 -0.36085,0 -0.46174,0.0725 -0.50252,0.36088 -0.0786,0.55627 0.52054,0.8313 0.87655,0.40234 z"
       id="path855-3-6-7" />
    <path
       style="fill:#ff6600;fill-opacity:0.227014;fill-rule:evenodd;stroke:#ff6600;stroke-width:0.865;stroke-miterlimit:4;stroke-dasharray:none"
       d="m 157.41863,132.7494 c -1.02351,-1.02351 0.38109,-2.63888 1.5703,-1.80592 0.48411,0.33909 0.65108,0.85866 0.45588,1.41861 -0.29221,0.83821 -1.36937,1.04412 -2.02618,0.38731 z m 1.28598,-0.45318 c 0.31548,-0.38013 0.12774,-0.76323 -0.37403,-0.76323 -0.36085,0 -0.46174,0.0725 -0.50252,0.36088 -0.0786,0.55628 0.52054,0.83131 0.87655,0.40235 z"
       id="path855-3-6-7-5" />
    <path
       style="fill:#ff6600;fill-opacity:0.227014;fill-rule:evenodd;stroke:#ff6600;stroke-width:0.865;stroke-miterlimit:4;stroke-dasharray:none"
       d="m 144.18937,124.28268 c -1.02351,-1.02351 0.3811,-2.63889 1.57031,-1.80593 0.48412,0.3391 0.65109,0.85867 0.45589,1.41862 -0.29222,0.83821 -1.36938,1.04413 -2.0262,0.38731 z m 1.28599,-0.45318 c 0.31548,-0.38013 0.12774,-0.76323 -0.37403,-0.76323 -0.36085,0 -0.46174,0.0725 -0.50252,0.36088 -0.0786,0.55628 0.52054,0.83131 0.87655,0.40235 z"
       id="path855-3-6-7-5-3" />
    <path
       style="fill:#ff6600;fill-opacity:0.227014;fill-rule:evenodd;stroke:#ff6600;stroke-width:0.865;stroke-miterlimit:4;stroke-dasharray:none"
       d="m 84.922437,79.303355 c -1.02351,-1.02351 0.3811,-2.63889 1.57031,-1.80593 0.48412,0.3391 0.65109,0.85867 0.45589,1.41862 -0.29222,0.83821 -1.36938,1.04413 -2.0262,0.38731 z m 1.28599,-0.45318 c 0.31548,-0.38013 0.12774,-0.76323 -0.37403,-0.76323 -0.36085,0 -0.46174,0.0725 -0.50252,0.36088 -0.0786,0.55628 0.52054,0.83131 0.87655,0.40235 z"
       id="path855-3-6-7-5-3-5" />
    <path
       style="fill:#ff6600;fill-opacity:0.227014;fill-rule:evenodd;stroke:#ff6600;stroke-width:0.865;stroke-miterlimit:4;stroke-dasharray:none"
       d="m 105.03081,91.474196 c -1.02352,-1.02351 0.3811,-2.63889 1.57032,-1.80593 0.48412,0.3391 0.65109,0.85867 0.45589,1.41862 -0.29222,0.83821 -1.36939,1.04413 -2.02621,0.38731 z m 1.286,-0.45318 c 0.31548,-0.38013 0.12774,-0.76323 -0.37403,-0.76323 -0.36086,0 -0.46175,0.0725 -0.50253,0.36088 -0.0786,0.55628 0.52055,0.83131 0.87656,0.40235 z"
       id="path855-3-6-7-5-3-5-6" />
    <path
       style="fill:#ff6600;fill-opacity:0.227014;fill-rule:evenodd;stroke:#ff6600;stroke-width:0.865;stroke-miterlimit:4;stroke-dasharray:none"
       d="m 61.91522,61.173641 c -1.023499,-1.023499 0.381084,-2.638843 1.570275,-1.805901 0.484103,0.33908 0.651069,0.858647 0.455872,1.418588 -0.2922,0.83821 -1.369346,1.044114 -2.026147,0.387313 z m 1.285965,-0.453181 c 0.315468,-0.380117 0.12773,-0.763215 -0.374021,-0.763215 -0.360852,0 -0.461745,0.07246 -0.502525,0.360879 -0.07865,0.556268 0.520538,0.831299 0.876546,0.402336 z"
       id="path855-2" />
    <path
       style="fill:#ff6600;fill-opacity:0.227014;fill-rule:evenodd;stroke:#ff6600;stroke-width:0.865;stroke-miterlimit:4;stroke-dasharray:none"
       d="m 49.215212,49.531967 c -1.023499,-1.023499 0.381084,-2.638843 1.570275,-1.805901 0.484103,0.33908 0.651069,0.858647 0.455872,1.418588 -0.2922,0.83821 -1.369346,1.044114 -2.026147,0.387313 z m 1.285965,-0.453181 c 0.315468,-0.380117 0.12773,-0.763215 -0.374021,-0.763215 -0.360852,0 -0.461745,0.07246 -0.502525,0.360879 -0.07865,0.556268 0.520538,0.831299 0.876546,0.402336 z"
       id="path855-2-9" />
    <path
       style="fill:none;stroke:#808080;stroke-width:0.465;stroke-linecap:butt;stroke-linejoin:miter;stroke-miterlimit:4;stroke-dasharray:1.86, 1.86;stroke-dashoffset:0;stroke-opacity:1"
       d="M 46.14449,45.925955 163.55547,136.43156"
       id="path899"
       sodipodi:nodetypes="cc" />
    <text
       xml:space="preserve"
       style="font-size:11.2889px;line-height:1.25;font-family:sans-serif;text-decoration:none;text-decoration-line:none;text-decoration-color:#000000;fill:#000000;stroke-width:0.264583;stop-color:#000000"
       x="94.879608"
       y="36.137337"
       id="text1139"><tspan
         sodipodi:role="line"
         id="tspan1137"
         x="94.879608"
         y="36.137337"
         style="stroke-width:0.264583">Järk = 1</tspan></text>
  </g>
</svg>
