<?xml version="1.0" encoding="UTF-8" standalone="no"?>
<svg
   xmlns:dc="http://purl.org/dc/elements/1.1/"
   xmlns:cc="http://creativecommons.org/ns#"
   xmlns:rdf="http://www.w3.org/1999/02/22-rdf-syntax-ns#"
   xmlns:svg="http://www.w3.org/2000/svg"
   xmlns="http://www.w3.org/2000/svg"
   xmlns:sodipodi="http://sodipodi.sourceforge.net/DTD/sodipodi-0.dtd"
   xmlns:inkscape="http://www.inkscape.org/namespaces/inkscape"
   width="174.31433mm"
   height="151.10452mm"
   viewBox="0 0 174.31433 151.10452"
   version="1.1"
   id="svg8"
   sodipodi:docname="graafiline-2.svg"
   inkscape:version="1.0.2 (1.0.2+r75+1)">
  <defs
     id="defs2" />
  <sodipodi:namedview
     id="base"
     pagecolor="#ffffff"
     bordercolor="#666666"
     borderopacity="1.0"
     inkscape:pageopacity="0.0"
     inkscape:pageshadow="2"
     inkscape:zoom="1.15"
     inkscape:cx="342.08763"
     inkscape:cy="190.92945"
     inkscape:document-units="mm"
     inkscape:current-layer="layer1"
     inkscape:document-rotation="0"
     showgrid="false"
     inkscape:window-width="1473"
     inkscape:window-height="1354"
     inkscape:window-x="0"
     inkscape:window-y="116"
     inkscape:window-maximized="0" />
  <metadata
     id="metadata5">
    <rdf:RDF>
      <cc:Work
         rdf:about="">
        <dc:format>image/svg+xml</dc:format>
        <dc:type
           rdf:resource="http://purl.org/dc/dcmitype/StillImage" />
        <dc:title></dc:title>
      </cc:Work>
    </rdf:RDF>
  </metadata>
  <g
     inkscape:label="Layer 1"
     inkscape:groupmode="layer"
     id="layer1"
     transform="translate(-9.9584416,-21.348611)">
    <path
       style="fill:none;stroke:#000000;stroke-width:0.865;stroke-linecap:butt;stroke-linejoin:miter;stroke-miterlimit:4;stroke-dasharray:none;stroke-opacity:1"
       d="M 30.798651,43.809287 V 157.2477 H 184.27278"
       id="path835" />
    <text
       xml:space="preserve"
       style="font-size:11.2889px;line-height:1.25;font-family:sans-serif;text-decoration:none;text-decoration-line:none;text-decoration-color:#000000;fill:#000000;stroke-width:0.264583;stop-color:#000000"
       x="101.83584"
       y="170.10495"
       id="text839"><tspan
         sodipodi:role="line"
         id="tspan837"
         x="101.83584"
         y="170.10495"
         style="stroke-width:0.264583">Aeg</tspan></text>
    <text
       xml:space="preserve"
       style="font-size:11.2889px;line-height:1.25;font-family:sans-serif;text-decoration:none;text-decoration-line:none;text-decoration-color:#000000;fill:#000000;stroke-width:0.264583;stop-color:#000000"
       x="11.037879"
       y="100.55137"
       id="text843"><tspan
         sodipodi:role="line"
         id="tspan841"
         x="11.037879"
         y="100.55137"
         style="stroke-width:0.264583" /></text>
    <path
       style="fill:#ff6600;fill-opacity:0.227014;fill-rule:evenodd;stroke:#ff6600;stroke-width:0.865;stroke-miterlimit:4;stroke-dasharray:none"
       d="m 53.976636,119.96475 c -1.023499,-1.02349 0.381084,-2.63884 1.570275,-1.8059 0.484103,0.33908 0.651069,0.85865 0.455872,1.41859 -0.2922,0.83821 -1.369346,1.04412 -2.026147,0.38731 z m 1.285965,-0.45318 c 0.315468,-0.38011 0.12773,-0.76321 -0.374021,-0.76321 -0.360852,0 -0.461745,0.0725 -0.502525,0.36088 -0.07865,0.55627 0.520538,0.8313 0.876546,0.40233 z"
       id="path855" />
    <path
       style="fill:#ff6600;fill-opacity:0.227014;fill-rule:evenodd;stroke:#ff6600;stroke-width:0.865;stroke-miterlimit:4;stroke-dasharray:none"
       d="m 73.996864,99.029236 c -1.023498,-1.023494 0.381083,-2.638825 1.570283,-1.805888 0.4841,0.339077 0.65107,0.858634 0.45587,1.418581 -0.2922,0.838204 -1.36935,1.044104 -2.026153,0.387307 z m 1.285973,-0.453177 c 0.31547,-0.380117 0.12773,-0.763214 -0.37403,-0.763214 -0.36085,0 -0.46174,0.0725 -0.50252,0.360877 -0.0786,0.556267 0.52054,0.831294 0.87655,0.402337 z"
       id="path855-3" />
    <path
       style="fill:#ff6600;fill-opacity:0.227014;fill-rule:evenodd;stroke:#ff6600;stroke-width:0.865;stroke-miterlimit:4;stroke-dasharray:none"
       d="m 94.515862,75.729572 c -1.023498,-1.023499 0.381083,-2.638843 1.570283,-1.805901 0.4841,0.33908 0.65107,0.858647 0.45587,1.418588 -0.2922,0.83821 -1.36935,1.044114 -2.026153,0.387313 z m 1.285973,-0.453181 c 0.31547,-0.380117 0.12773,-0.763215 -0.37403,-0.763215 -0.36085,0 -0.46174,0.07246 -0.50252,0.360879 -0.0786,0.556268 0.52054,0.831299 0.87655,0.402336 z"
       id="path855-3-6" />
    <path
       style="fill:#ff6600;fill-opacity:0.227014;fill-rule:evenodd;stroke:#ff6600;stroke-width:0.865;stroke-miterlimit:4;stroke-dasharray:none"
       d="m 104.4597,67.323754 c -1.0235,-1.0235 0.38109,-2.63886 1.5703,-1.80591 0.4841,0.33909 0.65107,0.85866 0.45587,1.4186 -0.2922,0.83821 -1.36936,1.04412 -2.02617,0.38731 z m 1.28598,-0.45318 c 0.31548,-0.38012 0.12774,-0.76322 -0.37403,-0.76322 -0.36085,0 -0.46174,0.0725 -0.50252,0.36088 -0.0786,0.55627 0.52054,0.8313 0.87655,0.40234 z"
       id="path855-3-6-7" />
    <path
       style="fill:#ff6600;fill-opacity:0.227014;fill-rule:evenodd;stroke:#ff6600;stroke-width:0.865;stroke-miterlimit:4;stroke-dasharray:none"
       d="m 123.79418,48.300315 c -1.02351,-1.02351 0.38109,-2.63888 1.5703,-1.80592 0.48411,0.33909 0.65108,0.85866 0.45588,1.41861 -0.29221,0.83821 -1.36937,1.04412 -2.02618,0.38731 z m 1.28598,-0.45318 c 0.31548,-0.38013 0.12774,-0.76323 -0.37403,-0.76323 -0.36085,0 -0.46174,0.0725 -0.50252,0.36088 -0.0786,0.55628 0.52054,0.83131 0.87655,0.40235 z"
       id="path855-3-6-7-5" />
    <path
       style="fill:#ff6600;fill-opacity:0.227014;fill-rule:evenodd;stroke:#ff6600;stroke-width:0.865;stroke-miterlimit:4;stroke-dasharray:none"
       d="m 114.45258,57.279815 c -1.02351,-1.02351 0.3811,-2.63889 1.57031,-1.80593 0.48412,0.3391 0.65109,0.85867 0.45589,1.41862 -0.29222,0.83821 -1.36938,1.04413 -2.0262,0.38731 z m 1.28599,-0.45318 c 0.31548,-0.38013 0.12774,-0.76323 -0.37403,-0.76323 -0.36085,0 -0.46174,0.0725 -0.50252,0.36088 -0.0786,0.55628 0.52054,0.83131 0.87655,0.40235 z"
       id="path855-3-6-7-5-3" />
    <path
       style="fill:#ff6600;fill-opacity:0.227014;fill-rule:evenodd;stroke:#ff6600;stroke-width:0.865;stroke-miterlimit:4;stroke-dasharray:none"
       d="m 63.823949,112.04786 c -1.02351,-1.02351 0.3811,-2.63889 1.57031,-1.80593 0.48412,0.3391 0.65109,0.85867 0.45589,1.41862 -0.29222,0.83821 -1.36938,1.04413 -2.0262,0.38731 z m 1.28599,-0.45318 c 0.31548,-0.38013 0.12774,-0.76323 -0.37403,-0.76323 -0.36085,0 -0.46174,0.0725 -0.50252,0.36088 -0.0786,0.55628 0.52054,0.83131 0.87655,0.40235 z"
       id="path855-3-6-7-5-3-5" />
    <path
       style="fill:#ff6600;fill-opacity:0.227014;fill-rule:evenodd;stroke:#ff6600;stroke-width:0.865;stroke-miterlimit:4;stroke-dasharray:none"
       d="m 85.814063,87.712574 c -1.02351,-1.02351 0.3811,-2.63889 1.57031,-1.80593 0.48412,0.3391 0.65109,0.85867 0.45589,1.41862 -0.29222,0.83821 -1.36938,1.04413 -2.0262,0.38731 z m 1.28599,-0.45318 c 0.31548,-0.38013 0.12774,-0.76323 -0.37403,-0.76323 -0.36085,0 -0.46174,0.0725 -0.50252,0.36088 -0.0786,0.55628 0.52054,0.83131 0.87655,0.40235 z"
       id="path855-3-6-7-5-3-5-6" />
    <path
       style="fill:#ff6600;fill-opacity:0.227014;fill-rule:evenodd;stroke:#ff6600;stroke-width:0.865;stroke-miterlimit:4;stroke-dasharray:none"
       d="m 45.00972,129.65671 c -1.023499,-1.0235 0.381084,-2.63885 1.570275,-1.80591 0.484103,0.33908 0.651069,0.85865 0.455872,1.41859 -0.2922,0.83821 -1.369346,1.04412 -2.026147,0.38732 z m 1.285965,-0.45319 c 0.315468,-0.38011 0.12773,-0.76321 -0.374021,-0.76321 -0.360852,0 -0.461745,0.0725 -0.502525,0.36088 -0.07865,0.55627 0.520538,0.8313 0.876546,0.40233 z"
       id="path855-2" />
    <path
       style="fill:#ff6600;fill-opacity:0.227014;fill-rule:evenodd;stroke:#ff6600;stroke-width:0.865;stroke-miterlimit:4;stroke-dasharray:none"
       d="m 38.569924,138.03054 c -1.023499,-1.0235 0.381084,-2.63884 1.570275,-1.8059 0.484103,0.33908 0.651069,0.85865 0.455872,1.41859 -0.2922,0.83821 -1.369346,1.04411 -2.026147,0.38731 z m 1.285965,-0.45318 c 0.315468,-0.38011 0.12773,-0.76321 -0.374021,-0.76321 -0.360852,0 -0.461745,0.0725 -0.502525,0.36088 -0.07865,0.55626 0.520538,0.8313 0.876546,0.40233 z"
       id="path855-2-9" />
    <text
       xml:space="preserve"
       style="font-size:11.2889px;line-height:1.25;font-family:sans-serif;text-decoration:none;text-decoration-line:none;text-decoration-color:#000000;fill:#000000;stroke-width:0.264583;stop-color:#000000"
       x="15.541631"
       y="92.138603"
       id="text1103"><tspan
         sodipodi:role="line"
         id="tspan1101"
         x="15.541631"
         y="92.138603"
         style="stroke-width:0.264583">1</tspan></text>
    <text
       xml:space="preserve"
       style="font-size:11.2889px;line-height:1.25;font-family:sans-serif;text-decoration:none;text-decoration-line:none;text-decoration-color:#000000;fill:#000000;stroke-width:0.264583;stop-color:#000000"
       x="12.226897"
       y="105.22282"
       id="text1107"><tspan
         sodipodi:role="line"
         id="tspan1105"
         x="12.226897"
         y="105.22282"
         style="stroke-width:0.264583">C<tspan
   style="font-size:65%;baseline-shift:sub"
   id="tspan1109">A</tspan></tspan></text>
    <path
       style="fill:none;stroke:#000000;stroke-width:0.264583px;stroke-linecap:butt;stroke-linejoin:miter;stroke-opacity:1"
       d="M 9.9584416,94.768282 H 26.839074"
       id="path1111" />
    <path
       style="fill:none;stroke:#999999;stroke-width:0.465;stroke-linecap:butt;stroke-linejoin:miter;stroke-miterlimit:4;stroke-dasharray:1.86, 1.86;stroke-dashoffset:0;stroke-opacity:1"
       d="M 32.749027,144.12796 130.18478,40.238261"
       id="path1113" />
    <text
       xml:space="preserve"
       style="font-size:11.2889px;line-height:1.25;font-family:sans-serif;text-decoration:none;text-decoration-line:none;text-decoration-color:#000000;fill:#000000;stroke-width:0.264583;stop-color:#000000"
       x="77.698524"
       y="29.925529"
       id="text1117"><tspan
         sodipodi:role="line"
         id="tspan1115"
         x="77.698524"
         y="29.925529"
         style="stroke-width:0.264583">Järk = 2</tspan></text>
  </g>
</svg>
