<?xml version="1.0" encoding="UTF-8" standalone="no"?>
<svg
   xmlns:dc="http://purl.org/dc/elements/1.1/"
   xmlns:cc="http://creativecommons.org/ns#"
   xmlns:rdf="http://www.w3.org/1999/02/22-rdf-syntax-ns#"
   xmlns:svg="http://www.w3.org/2000/svg"
   xmlns="http://www.w3.org/2000/svg"
   xmlns:sodipodi="http://sodipodi.sourceforge.net/DTD/sodipodi-0.dtd"
   xmlns:inkscape="http://www.inkscape.org/namespaces/inkscape"
   width="146.21497mm"
   height="108.40214mm"
   viewBox="0 0 146.21497 108.40214"
   version="1.1"
   id="svg873"
   sodipodi:docname="rakkude-kasvamise-faasid.svg"
   inkscape:version="1.0.2 (1.0.2+r75+1)">
  <defs
     id="defs867">
    <rect
       x="4.4621754"
       y="135.92638"
       width="7.8417611"
       height="18.883184"
       id="rect1462" />
  </defs>
  <sodipodi:namedview
     id="base"
     pagecolor="#ffffff"
     bordercolor="#666666"
     borderopacity="1.0"
     inkscape:pageopacity="0.0"
     inkscape:pageshadow="2"
     inkscape:zoom="0.88"
     inkscape:cx="474.99417"
     inkscape:cy="241.49388"
     inkscape:document-units="mm"
     inkscape:current-layer="layer1"
     inkscape:document-rotation="0"
     showgrid="false"
     inkscape:window-width="1853"
     inkscape:window-height="1025"
     inkscape:window-x="67"
     inkscape:window-y="27"
     inkscape:window-maximized="1" />
  <metadata
     id="metadata870">
    <rdf:RDF>
      <cc:Work
         rdf:about="">
        <dc:format>image/svg+xml</dc:format>
        <dc:type
           rdf:resource="http://purl.org/dc/dcmitype/StillImage" />
      </cc:Work>
    </rdf:RDF>
  </metadata>
  <g
     inkscape:label="Layer 1"
     inkscape:groupmode="layer"
     id="layer1"
     transform="translate(-23.501268,-79.737115)">
    <path
       style="fill:none;stroke:#000000;stroke-width:0.665;stroke-linecap:butt;stroke-linejoin:miter;stroke-miterlimit:4;stroke-dasharray:none;stroke-opacity:1"
       d="m 39.81279,80.16156 v 94.74318 h 129.90344"
       id="path1436" />
    <path
       style="fill:none;stroke:#008000;stroke-width:1.365;stroke-linecap:butt;stroke-linejoin:miter;stroke-miterlimit:4;stroke-dasharray:1.365, 1.365;stroke-dashoffset:0;stroke-opacity:1"
       d="m 41.470708,163.32026 c 1.242002,-0.0741 2.487928,-0.099 3.726008,-0.22234 3.181536,-0.31701 6.160657,-0.4923 9.353799,-0.4923 0.762585,0 3.717867,0.45995 4.43076,0 0.376132,-0.24268 0.562152,-0.73495 0.961189,-0.93778 2.65e-4,-1.9e-4 1.766604,2e-4 1.767239,0 1.276578,-0.39798 1.431822,-1.68238 2.153894,-2.62813 0.09652,-0.12642 0.362267,0.10999 0.477144,0 0.335836,-0.32158 0.119729,-0.99245 0.449104,-1.32063 0.09865,-0.0983 0.278508,0 0.417761,0 0.143976,-0.28796 0.204272,-0.63622 0.431927,-0.86386 0.101828,-0.10182 0.346453,0.11583 0.432001,0 0.400944,-0.54288 0.498613,-1.27244 0.905457,-1.81092 0.093,-0.12308 0.350465,0.10574 0.462794,0 0.105735,-0.0995 -0.101272,-0.33155 0,-0.43561 0.230221,-0.23656 0.924332,-0.25635 1.190834,-0.78306 0.176215,-0.34826 0.490442,-1.24176 0.744942,-1.50432 0.08173,-0.0843 0.265843,0.0795 0.3523,0 0.253508,-0.23303 0.08241,-0.73812 0.327877,-0.97959 0.17253,-0.16972 0.500719,-0.16332 0.672161,-0.3335 0.108797,-0.10799 -0.108416,-0.55241 0,-0.6608 0.07777,-0.0778 0.252436,0.078 0.329914,0 0.07805,-0.0786 -0.07832,-0.25399 0,-0.33232 0.07832,-0.0783 0.253421,0.0778 0.332301,0 0.270431,-0.26659 0.376441,-0.7082 0.646031,-0.976 0.159001,-0.15794 0.485513,-0.1574 0.641569,-0.31679 0.148339,-0.1515 -0.149368,-0.48561 0,-0.6361 0.07377,-0.0743 0.239938,0.0739 0.314151,0 0.38936,-0.38761 0.437917,-1.38553 0.925404,-1.87178 0.07629,-0.0761 0.246308,0.0754 0.32327,0 0.0708,-0.0694 -0.07003,-0.55925 0,-0.63016 0.0725,-0.0734 0.236554,0.0729 0.30951,0 0.145367,-0.14536 -0.12078,-0.67156 0,-0.8435 0.382452,-0.54449 1.171583,-0.85379 1.611106,-1.36945 0.254727,-0.29885 0.365149,-0.68483 0.639424,-0.95908 0.07535,-0.0753 0.24434,0.0754 0.319675,0 0.07536,-0.0754 -0.07569,-0.24472 0,-0.31978 0.07631,-0.0757 0.246438,0.076 0.322445,0 0.076,-0.076 -0.076,-0.24642 0,-0.32241 0.07601,-0.076 0.246459,0.076 0.322463,0 0.076,-0.076 -0.07569,-0.24614 0,-0.32246 0.07506,-0.0757 0.24415,0.0751 0.319784,0 0.07511,-0.0746 -0.07455,-0.24242 0,-0.31757 0.07396,-0.0745 0.240786,0.0743 0.315034,0 0.07426,-0.0743 -0.07427,-0.24082 0,-0.31508 0.07428,-0.0743 0.24085,0.0743 0.31514,0 0.640429,-0.64024 0.351197,-1.97355 0.985964,-2.63093 0.07536,-0.078 0.249243,0.0772 0.32549,0 0.219099,-0.2218 -0.219715,-1.09556 0,-1.31656 0.07551,-0.0759 0.245542,0.0757 0.321271,0 0.339706,-0.33964 0.02373,-1.92653 0.326466,-2.23763 0.07012,-0.0721 0.229357,0.0699 0.301636,0 0.200009,-0.19341 -0.03205,-0.85296 0.303049,-1.19079 0.06998,-0.0706 0.226689,0.0691 0.298111,0 0.202763,-0.19615 -0.04318,-0.83384 0.298278,-1.17449 0.07072,-0.0705 0.254915,0.0893 0.299688,0 0.12677,-0.25283 0.06967,-0.96923 0.296683,-1.19793 0.151587,-0.15272 0.457242,-0.15506 0.609859,-0.30729 0.144566,-0.14421 -0.144928,-0.46874 0,-0.61258 0.204322,-0.20281 0.77452,-0.4645 0.927955,-0.62077 0.0732,-0.0746 0,-0.20898 0,-0.31346 0.105738,-0.21148 0.149246,-0.46803 0.317214,-0.63443 0.07654,-0.0758 0.247467,0.0766 0.323199,0 0.632378,-0.63985 0.02339,-0.72496 0.69007,-1.38015 0.0013,-0.001 1.092687,-0.71915 1.094968,-0.72147 0.08669,-0.088 0,-0.24707 0,-0.3706 0.128421,-0.25685 0.183298,-0.5664 0.385262,-0.77055 0.08839,-0.0894 0.286155,0.0868 0.377058,0 0.347596,-0.3319 -0.303377,-5.24362 0,-6.11795 1.078161,-3.10727 3.680029,-5.33196 5.088477,-8.04604 0.464958,-0.89598 -0.451792,-2.49724 0,-3.40116 0.604978,-1.2104 0.248904,-0.5053 0.613291,-1.91597 0.274463,-1.06256 1.855383,-3.17108 2.570536,-4.23704 -0.02649,-0.59496 0.44804,-0.139 0.607105,-0.29894 0.476186,-0.47879 0.735695,-1.693326 1.264954,-2.221633 0.161602,-0.161313 0.805238,0.161076 0.967134,0 0.195768,-0.194781 2.139062,-2.628082 2.487652,-2.798548 0.73185,-0.357873 2.05834,0.197078 2.85859,0 0.88548,-0.218061 1.88027,-1.274511 2.66718,-1.651285 0.22261,-0.106593 0.50748,0.08149 0.74046,0 0.17724,-0.06199 0.22977,-0.315535 0.39831,-0.39831 0.92814,-0.455861 2.53211,0.45937 3.45826,0 0.37314,-0.185073 0.62648,-0.650478 1.041,-0.691118 1.99329,-0.195416 4.0057,0 6.00854,0 0.65344,0 1.39649,0.330282 1.96031,0 0.56418,-0.330491 0.82742,-1.050104 1.3889,-1.38516 0.57244,-0.3416 8.12497,0 9.91686,0 2.97551,0 5.95103,0 8.92654,0 1.09159,0 2.40557,-0.260146 3.44613,0 0.88844,0.22211 1.25931,0.611021 1.95618,0.971566 0.25729,0.133112 1.04427,-0.194725 1.25187,0 0.0888,0.08328 -0.0843,0.277411 0,0.365176 0.0811,0.08435 0.24631,-0.05231 0.35095,0 0.54304,0.271454 1.26675,1.308486 1.53045,1.569085 0.13179,0.130241 -0.1317,0.425534 0,0.555868 0.37995,0.37601 1.22581,0.942507 1.68517,1.404366 0.0674,0.0678 0,0.191238 0,0.286856 0,0.09816 -0.0692,0.224885 0,0.294479 0.28179,0.283286 0.81,0.510106 1.18741,0.887444 0.39882,0.398748 0.57157,1.494524 0.93539,1.864624 0.0723,0.0736 0.23708,-0.0735 0.30954,0 0.19136,0.19396 0.4669,1.11531 0.65386,1.30048 0.17969,0.17798 0.50133,0.15895 0.67864,0.3393 0.25829,0.2627 0.43015,1.499 0.71455,1.78362 0.0848,0.0849 0.27694,-0.0866 0.3599,0 0.0867,0.0905 -0.0562,0.26393 0,0.3759 0.12307,0.24502 0.9435,0.66665 1.1685,0.77943 0.11873,0.0595 0.30396,-0.0934 0.39842,0 0.0933,0.0922 -0.0587,0.27632 0,0.39373 0.29919,0.59883 1.23791,0.88231 1.50579,1.14402 0.63892,0.62419 -0.62625,3.14947 0,3.79033 0.39725,0.40651 1.69991,1.33484 2.05038,2.0236 0.0993,0.1951 -0.14891,0.8045 0,0.95647 0.0717,0.0731 0.23475,-0.0724 0.30714,0 0.36852,0.36849 -0.48652,1.8058 0.26516,1.8058"
       id="path1448" />
    <text
       xml:space="preserve"
       style="font-size:11.2889px;line-height:1.25;font-family:sans-serif;text-decoration:none;text-decoration-line:none;text-decoration-color:#000000;fill:#000000;stroke-width:0.264583;stop-color:#000000"
       x="93.05545"
       y="185.79108"
       id="text1452"><tspan
         sodipodi:role="line"
         id="tspan1450"
         x="93.05545"
         y="185.79108"
         style="stroke-width:0.264583">Aeg</tspan></text>
    <text
       xml:space="preserve"
       style="font-size:11.2889px;line-height:1.25;font-family:sans-serif;text-decoration:none;text-decoration-line:none;text-decoration-color:#000000;fill:#000000;stroke-width:0.264583;stop-color:#000000"
       x="-151.95094"
       y="32.078186"
       id="text1456"
       transform="rotate(-90)"><tspan
         sodipodi:role="line"
         id="tspan1454"
         x="-151.95094"
         y="32.078186"
         style="stroke-width:0.264583"
         rotate="0 0 0 0 0 0 0 0 0 0 0 0">log(C<tspan
   style="font-size:65%;baseline-shift:sub"
   id="tspan1458"
   rotate="0 0 0 0 0 0">rakud</tspan>)</tspan></text>
    <text
       xml:space="preserve"
       id="text1460"
       style="font-size:11.2889px;line-height:1.25;font-family:sans-serif;text-decoration:none;text-decoration-line:none;text-decoration-color:#000000;white-space:pre;shape-inside:url(#rect1462);fill:#000000;stroke-width:0.264583;stop-color:#000000;" />
    <path
       style="fill:none;stroke:#808080;stroke-width:0.264583px;stroke-linecap:butt;stroke-linejoin:miter;stroke-opacity:1"
       d="m 58.725455,155.39795 v 14.69578 0"
       id="path1488" />
    <path
       style="fill:none;stroke:#808080;stroke-width:0.264583px;stroke-linecap:butt;stroke-linejoin:miter;stroke-opacity:1"
       d="m 98.766261,91.56045 v 14.69576 0"
       id="path1488-3" />
    <path
       style="fill:none;stroke:#808080;stroke-width:0.264583px;stroke-linecap:butt;stroke-linejoin:miter;stroke-opacity:1"
       d="m 148.7806,89.26497 v 14.69576 0"
       id="path1488-3-6" />
    <text
       xml:space="preserve"
       style="font-size:7.05556px;line-height:1.25;font-family:sans-serif;text-decoration:none;text-decoration-line:none;text-decoration-color:#000000;fill:#000000;stroke-width:0.264583;stop-color:#000000"
       x="46.964973"
       y="154.71178"
       id="text1532"><tspan
         sodipodi:role="line"
         id="tspan1530"
         x="46.964973"
         y="154.71178"
         style="font-size:7.05556px;stroke-width:0.264583">1</tspan></text>
    <text
       xml:space="preserve"
       style="font-size:7.05556px;line-height:1.25;font-family:sans-serif;text-decoration:none;text-decoration-line:none;text-decoration-color:#000000;fill:#000000;stroke-width:0.264583;stop-color:#000000"
       x="74.271103"
       y="127.78807"
       id="text1536"><tspan
         sodipodi:role="line"
         id="tspan1534"
         x="74.271103"
         y="127.78807"
         style="font-size:7.05556px;stroke-width:0.264583">2</tspan></text>
    <text
       xml:space="preserve"
       style="font-size:7.05556px;line-height:1.25;font-family:sans-serif;text-decoration:none;text-decoration-line:none;text-decoration-color:#000000;fill:#000000;stroke-width:0.264583;stop-color:#000000"
       x="120.87429"
       y="86.561165"
       id="text1540"><tspan
         sodipodi:role="line"
         id="tspan1538"
         x="120.87429"
         y="86.561165"
         style="font-size:7.05556px;stroke-width:0.264583">3</tspan></text>
    <text
       xml:space="preserve"
       style="font-size:7.05556px;line-height:1.25;font-family:sans-serif;text-decoration:none;text-decoration-line:none;text-decoration-color:#000000;fill:#000000;stroke-width:0.264583;stop-color:#000000"
       x="159.52486"
       y="101.11476"
       id="text1544"><tspan
         sodipodi:role="line"
         id="tspan1542"
         x="159.52486"
         y="101.11476"
         style="font-size:7.05556px;stroke-width:0.264583">4</tspan></text>
  </g>
</svg>
