<?xml version="1.0" encoding="UTF-8" standalone="no"?>
<!-- Created with Inkscape (http://www.inkscape.org/) -->
<svg xmlns:dc="http://purl.org/dc/elements/1.1/" xmlns:cc="http://creativecommons.org/ns#" xmlns:rdf="http://www.w3.org/1999/02/22-rdf-syntax-ns#" xmlns:svg="http://www.w3.org/2000/svg" xmlns="http://www.w3.org/2000/svg" xmlns:xlink="http://www.w3.org/1999/xlink" xmlns:sodipodi="http://sodipodi.sourceforge.net/DTD/sodipodi-0.dtd" xmlns:inkscape="http://www.inkscape.org/namespaces/inkscape" width="235" height="297" viewBox="0 0 235 297" id="svg4642" sodipodi:version="0.32" inkscape:version="0.46" sodipodi:docname="Continious_reactor.svg" inkscape:output_extension="org.inkscape.output.svg.inkscape" version="1.0">
  <defs id="defs4644">
    <linearGradient inkscape:collect="always" id="linearGradient6645">
      <stop style="stop-color:#aaeeff;stop-opacity:1" offset="0" id="stop6647"/>
      <stop style="stop-color:#aaccff;stop-opacity:1" offset="1" id="stop6649"/>
    </linearGradient>
    <linearGradient id="linearGradient6048">
      <stop style="stop-color:#d7e3f4;stop-opacity:1;" offset="0" id="stop6050"/>
      <stop id="stop6134" offset="0.5" style="stop-color:#93bcf6;stop-opacity:0.49803922;"/>
      <stop style="stop-color:#cde1ff;stop-opacity:0.24705882;" offset="0.75" id="stop6136"/>
      <stop style="stop-color:#d7e3f4;stop-opacity:0;" offset="1" id="stop6052"/>
    </linearGradient>
     <inkscape:perspective sodipodi:type="inkscape:persp3d" inkscape:vp_x="0 : 526.18109 : 1" inkscape:vp_y="0 : 1000 : 0" inkscape:vp_z="744.09448 : 526.18109 : 1" inkscape:persp3d-origin="372.04724 : 350.78739 : 1" id="perspective4650"/>
    <linearGradient inkscape:collect="always" xlink:href="#linearGradient6645" id="linearGradient6695" gradientUnits="userSpaceOnUse" gradientTransform="translate(350.19603,-0.260008)" x1="366.2753" y1="362.99283" x2="366.2753" y2="222.52473"/>
  </defs>
  <sodipodi:namedview id="base" pagecolor="#ffffff" bordercolor="#666666" borderopacity="1.0" inkscape:pageopacity="0.0" inkscape:pageshadow="2" inkscape:zoom="1" inkscape:cx="351.86899" inkscape:cy="122.35875" inkscape:document-units="px" inkscape:current-layer="layer1" showgrid="false" inkscape:window-width="1024" inkscape:window-height="690" inkscape:window-x="0" inkscape:window-y="23"/>
  <metadata id="metadata4647">
    <rdf:RDF>
      <cc:Work rdf:about="">
        <dc:format>image/svg+xml</dc:format>
        <dc:type rdf:resource="http://purl.org/dc/dcmitype/StillImage"/>
      </cc:Work>
    </rdf:RDF>
  </metadata>
  <g inkscape:label="Calque 1" inkscape:groupmode="layer" id="layer1" transform="translate(-625.45001,-75.912224)">
    <path style="fill:#000000;fill-opacity:1;stroke:#ffffff;stroke-width:0.62468565;stroke-miterlimit:4;stroke-dashoffset:0;stroke-opacity:1" d="M 840.70962,300.80348 L 840.70962,308.92848 L 790.70962,308.92848 L 790.70962,314.08473 L 840.70962,314.08473 L 840.70962,322.20973 L 859.14712,311.52223 L 840.70962,300.80348 z" id="path6610"/>
    <path sodipodi:nodetypes="cccccccc" id="path6677" d="M 788.49045,222.26473 L 644.3967,222.26473 C 644.29783,247.8695 644.52093,273.47275 644.42795,299.07723 C 644.89389,306.69828 643.40988,314.58609 645.2717,322.01473 C 649.41745,338.72805 664.09337,350.59431 679.67795,356.35848 C 704.68912,365.51274 733.64997,364.89929 758.05295,353.92098 C 772.65306,347.40187 785.64199,334.86425 788.49045,318.60848 C 788.57044,286.49573 788.77984,254.37539 788.49045,222.26473 z" style="opacity:0.8;fill:url(#linearGradient6695);fill-opacity:1;stroke:none;stroke-width:0.57459778;stroke-miterlimit:4;stroke-dasharray:none;stroke-dashoffset:0;stroke-opacity:1"/>
    <path style="fill:#333333;fill-opacity:1;stroke:#000000;stroke-width:0.57459778;stroke-miterlimit:4;stroke-dasharray:none;stroke-dashoffset:0;stroke-opacity:1" d="M 718.80351,127.39932 L 718.80351,325.63554 L 713.63213,325.63554 L 713.63213,127.39932 L 718.80351,127.39932 z" id="path6679" sodipodi:nodetypes="ccccc"/>
    <path style="fill:#ffffff;fill-opacity:1;stroke:#000000;stroke-width:1.14919543;stroke-miterlimit:4;stroke-dashoffset:0;stroke-opacity:1" d="M 716.20958,323.19434 C 716.20958,325.29773 706.72569,327.00483 695.04018,327.00483 C 683.35468,327.00483 673.87079,325.29773 673.87079,323.19434 C 673.87079,321.09095 683.35468,319.38385 695.04018,319.38385 C 706.72569,319.38385 716.20958,321.09095 716.20958,323.19434 z" id="path6681"/>
    <path style="fill:#ffffff;fill-opacity:1;stroke:#000000;stroke-width:1.14919543;stroke-miterlimit:4;stroke-dashoffset:0;stroke-opacity:1" d="M 758.56485,323.19434 C 758.56485,325.29773 749.08096,327.00483 737.39545,327.00483 C 725.70995,327.00483 716.22607,325.29773 716.22607,323.19434 C 716.22607,321.09095 725.70995,319.38385 737.39545,319.38385 C 749.08096,319.38385 758.56485,321.09095 758.56485,323.19434 z" id="path6683"/>
    <path style="fill:#ffffff;fill-opacity:1;stroke:#000000;stroke-width:1.14919555;stroke-miterlimit:4;stroke-dashoffset:0;stroke-opacity:1" d="M 708.17345,79.70771 L 724.26219,79.70771 C 727.44546,79.70771 730.00817,82.27042 730.00817,85.45369 L 730.00817,122.22794 C 730.00817,125.41122 727.44546,127.97392 724.26219,127.97392 L 708.17345,127.97392 C 704.99018,127.97392 702.42748,125.41122 702.42748,122.22794 L 702.42748,85.45369 C 702.42748,82.27042 704.99018,79.70771 708.17345,79.70771 z" id="path6685"/>
    <path style="fill:#000000;fill-opacity:1;stroke:#000000;stroke-width:1.07558262;stroke-miterlimit:4;stroke-dashoffset:0;stroke-opacity:1" d="M 700.89286,89.00524 L 731.54279,89.00524 C 732.52698,89.00524 733.31931,89.56529 733.31931,90.26095 C 733.31931,90.95661 732.52698,91.51666 731.54279,91.51666 L 700.89286,91.51666 C 699.90866,91.51666 699.11633,90.95661 699.11633,90.26095 C 699.11633,89.56529 699.90866,89.00524 700.89286,89.00524 z" id="path6687"/>
    <path style="fill:#000000;fill-opacity:1;stroke:#000000;stroke-width:1.07558262;stroke-miterlimit:4;stroke-dashoffset:0;stroke-opacity:1" d="M 700.89286,118.07522 L 731.54279,118.07522 C 732.52698,118.07522 733.31931,118.63526 733.31931,119.33093 C 733.31931,120.02659 732.52698,120.58664 731.54279,120.58664 L 700.89286,120.58664 C 699.90866,120.58664 699.11633,120.02659 699.11633,119.33093 C 699.11633,118.63526 699.90866,118.07522 700.89286,118.07522 z" id="path6689"/>
    <path style="fill:#4d4d4d;fill-opacity:1;stroke:#000000;stroke-width:0.57459778;stroke-miterlimit:4;stroke-dasharray:none;stroke-dashoffset:0;stroke-opacity:1" d="M 740.74133,155.20683 C 734.64534,155.24365 728.52893,155.5703 722.51581,155.31456 C 710.25779,155.32683 697.99935,155.29021 685.74155,155.33252 C 665.77679,155.42457 646.04011,168.07404 639.57621,187.25861 C 635.64168,198.36992 637.09654,210.28013 637.02644,221.89608 C 633.1631,222.52827 630.22104,225.88214 630.22104,229.94045 C 630.22103,233.97335 633.12691,237.32058 636.95461,237.98482 C 636.95666,242.0989 636.95991,246.20598 636.95461,250.32071 C 632.90762,250.78864 629.77214,254.24733 629.77214,258.4369 C 629.77213,262.61425 632.88879,266.06764 636.9187,266.5531 C 636.91184,270.6215 636.90289,274.69531 636.90074,278.7633 C 632.47737,278.84018 628.91024,282.45454 628.91024,286.91541 C 628.91023,291.38254 632.48675,295.01822 636.9187,295.08547 C 636.94197,302.88732 636.98722,310.68664 637.0803,318.48237 C 638.12709,325.04428 640.57839,331.16014 644.02935,336.65402 C 641.3685,339.67091 641.28288,344.28573 644.01139,347.40978 C 646.69489,350.48232 651.16529,351.05632 654.4978,348.95401 C 656.42252,350.67312 658.44641,352.2752 660.56699,353.74831 C 659.34844,357.42531 660.90408,361.5706 664.44552,363.48056 C 668.0206,365.40868 672.37967,364.39563 674.77033,361.2899 C 698.82075,371.17848 726.60779,371.44766 751.31752,363.60625 C 753.08771,363.03328 754.84924,362.397 756.59664,361.70289 C 756.68449,361.90701 756.79452,362.11432 756.90189,362.3134 C 759.03299,366.26487 763.9763,367.72181 767.94494,365.58143 C 771.91357,363.44107 773.39795,358.50781 771.26683,354.55633 C 771.2005,354.43334 771.12323,354.31526 771.05136,354.19721 C 772.99044,352.91782 774.86012,351.56442 776.65369,350.1032 C 776.72799,350.17362 776.79139,350.25075 776.86916,350.31868 C 780.25056,353.27195 785.41298,352.90676 788.37907,349.51065 C 791.28816,346.17984 791.00611,341.1761 787.80448,338.19825 C 790.13364,334.84371 792.08366,331.20463 793.55045,327.2809 C 796.00452,321.45272 796.5945,315.02734 796.1541,308.69625 C 796.14372,304.84776 796.12105,300.99909 796.11819,297.15043 C 800.25099,296.76377 803.48023,293.26738 803.48022,289.01628 C 803.48022,284.77112 800.26068,281.29361 796.13614,280.90009 C 796.14005,276.78191 796.14831,272.66445 796.1541,268.54623 C 799.85044,267.77627 802.61834,264.47702 802.61832,260.53778 C 802.61832,256.60468 799.85976,253.32153 796.17206,252.54728 C 796.17599,248.34531 796.15527,244.14389 796.1541,239.94204 C 799.61927,239.00498 802.16943,235.83372 802.16942,232.05928 C 802.16942,228.27868 799.60993,225.12293 796.13614,224.19447 C 796.1125,215.87508 796.08769,207.55351 796.01045,199.23538 C 794.89725,180.60029 781.3582,163.98012 763.77911,158.25938 C 756.36019,155.57863 748.57903,155.15948 740.74133,155.20683 z M 718.76297,162.78433 C 729.34095,162.75829 739.92141,162.78416 750.49153,163.01776 C 767.22476,164.0976 783.29024,175.89434 787.3017,192.57364 C 789.84434,203.32787 788.12686,214.55667 788.63046,225.52323 C 788.55843,256.18892 788.77439,286.88222 788.52272,317.53069 C 785.67426,333.78646 772.68711,346.31343 758.087,352.83254 C 733.68402,363.81085 704.7374,364.41089 679.72623,355.25663 C 664.14165,349.49247 649.46794,337.65569 645.32219,320.94237 C 643.46037,313.51373 644.92623,305.61542 644.46029,297.99437 C 644.57983,265.07727 644.21077,232.1437 644.6219,199.23538 C 645.66521,182.99421 658.17682,168.71563 673.76478,164.65178 C 678.08459,163.40433 682.54698,162.8262 687.0344,162.82025 C 697.60949,162.88833 708.18498,162.81038 718.76297,162.78433 z" id="path6693"/>
    <path style="fill:#000000;fill-opacity:1;stroke:#ffffff;stroke-width:0.62468565;stroke-miterlimit:4;stroke-dashoffset:0;stroke-opacity:1" d="M 630.8034,102.89723 L 630.8034,108.05348 L 680.6471,108.05348 L 680.6471,184.89723 L 672.5534,184.89723 L 683.2409,203.30348 L 693.9284,184.89723 L 685.8346,184.89723 L 685.8346,102.89723 L 630.8034,102.89723 z" id="path6603"/>
  </g>
</svg>
